<?xml version="1.0" encoding="UTF-8" standalone="no"?>
<!-- Created with Inkscape (http://www.inkscape.org/) -->

<svg
   width="360"
   height="270"
   viewBox="0 0 95.24999 71.437498"
   version="1.1"
   id="svg5"
   xml:space="preserve"
   inkscape:version="1.2.1 (9c6d41e, 2022-07-14)"
   sodipodi:docname="Charge.svg"
   xmlns:inkscape="http://www.inkscape.org/namespaces/inkscape"
   xmlns:sodipodi="http://sodipodi.sourceforge.net/DTD/sodipodi-0.dtd"
   xmlns="http://www.w3.org/2000/svg"
   xmlns:svg="http://www.w3.org/2000/svg"><sodipodi:namedview
     id="namedview7"
     pagecolor="#ffffff"
     bordercolor="#000000"
     borderopacity="0.25"
     inkscape:showpageshadow="2"
     inkscape:pageopacity="0.0"
     inkscape:pagecheckerboard="0"
     inkscape:deskcolor="#d1d1d1"
     inkscape:document-units="mm"
     showgrid="false"
     inkscape:zoom="0.914906"
     inkscape:cx="183.62542"
     inkscape:cy="277.07764"
     inkscape:window-width="1390"
     inkscape:window-height="1205"
     inkscape:window-x="368"
     inkscape:window-y="96"
     inkscape:window-maximized="0"
     inkscape:current-layer="layer1" /><defs
     id="defs2"><style
       id="style59">      .cls-1 {        fill: #fdb81e;      }      .cls-2 {        fill: #fff;      }      .cls-3 {        fill: #4b4f54;      }      .cls-4 {        fill: #a51b2f;      }    </style></defs><g
     inkscape:label="Layer 1"
     inkscape:groupmode="layer"
     id="layer1"
     transform="translate(32.028541,-76.369231)"><g
       id="Layer_1"
       transform="matrix(0.1095183,0,0,0.1095183,-29.382708,78.485898)"><g
         id="g73"><path
           class="cls-4"
           d="M 271,263.4 0,261.8 250.9,313 c 5,-15.9 12.6,-32.7 20.1,-49.5 z m -35.2,147.7 v -3.4 H 6.7 l 234.1,49.5 c -2.5,-15.1 -5,-30.2 -5,-46.1 z m 209.7,203 C 613.3,614.1 780.3,474 821.4,253.3 L 756,276 793.8,224 631,294.5 c -36.9,81.4 -118.3,141.8 -194.6,141.8 -76.3,0 -101.5,-41.1 -101.5,-109.1 0,-113.3 104,-224.8 208.1,-224.8 104.1,0 107.4,42.8 107.4,109.1 0,66.3 -5,47 -15.1,71.3 l 177.9,-151 C 781.9,46.1 700.5,0 560.4,0 420.3,0 282.7,31 212.3,46.1 c 132.6,1.7 184.6,0 260.9,11.7 -38.6,19.3 -72.2,45.3 -102.4,78 H 103.2 l 220.7,45.3 c 7.6,-5.9 15.9,-11.7 25.2,-16.8 -63.8,75.5 -98.2,170.3 -98.2,255.9 0,85.6 39.4,140.1 92.3,167.8 -24.3,-8.4 -47,-21.8 -57.1,-36.9 -76.3,-6.7 -140.1,-13.4 -215.6,-24.3 104,46.1 256.7,87.3 375,87.3 z"
           id="path63" /><path
           class="cls-2"
           d="m 446.3,597.4 c -75.5,0 -132.6,-34.4 -166.1,-97.3 28.5,47.8 76.3,73 141.8,73 140.1,0 278.5,-111.6 330.6,-260.1 l -68,15.1 30.5,-49.5 -78.1,26.3 117.5,-51.2 -26.3,43.3 66.3,-21 c -29.4,167.8 -193,321.3 -348.2,321.3 z"
           id="path65" /><path
           class="cls-2"
           d="m 791.6,126.5 -30.2,26 C 740,68.8 651.9,17.9 514.3,17.9 c -137.6,0 -72.2,2.5 -89.8,3.4 45.3,-8.4 99,-11.4 135.1,-11.4 113.4,0 203.9,47.2 232,116.7 z"
           id="path67" /><path
           class="cls-1"
           d="m 422,573 c -65.4,0 -113.3,-25.2 -141.8,-73 20.1,36.1 71.3,57.9 131.7,57.9 120,0 255.9,-95.6 307.9,-218.1 l -73.8,15.9 38.9,-56.7 -47.8,5.9 78.1,-26.3 -30.5,49.5 68,-15.1 c -52,148.5 -190.4,260.1 -330.6,260.1 z"
           id="path69" /><path
           class="cls-1"
           d="m 761.4,152.5 -26,22.7 C 715.6,57.9 606.6,15.3 424.5,21.2 c 17.6,-0.8 60.4,-3.4 89.8,-3.4 137.6,0 225.7,50.9 247.1,134.6 z"
           id="path71" /></g><path
         class="cls-3"
         d="m 390.1,414.5 c -17.6,-18.5 -27.7,-44.5 -27.7,-78 0,-107.4 100.7,-210.6 193.8,-210.6 93.1,0 43.6,5.9 57.9,15.9 -15.9,-16.8 -40.3,-27.7 -71.3,-27.7 -96.5,0 -194.6,104.9 -194.6,212.3 0,107.4 15.1,71.3 41.9,88.1 z"
         id="path75" /></g></g></svg>
